<?xml version="1.0" encoding="UTF-8" standalone="no"?>
<!-- Created with Inkscape (http://www.inkscape.org/) -->

<svg
   width="1749.0267"
   height="126.1875"
   viewBox="0 0 462.76332 33.387108"
   version="1.1"
   id="svg5"
   inkscape:version="1.2.2 (732a01da63, 2022-12-09)"
   sodipodi:docname="NovaSoftworks.svg"
   inkscape:export-filename="nova_softworks_square_inverted.png"
   inkscape:export-xdpi="96"
   inkscape:export-ydpi="96"
   xmlns:inkscape="http://www.inkscape.org/namespaces/inkscape"
   xmlns:sodipodi="http://sodipodi.sourceforge.net/DTD/sodipodi-0.dtd"
   xmlns="http://www.w3.org/2000/svg"
   xmlns:svg="http://www.w3.org/2000/svg">
  <sodipodi:namedview
     id="namedview7"
     pagecolor="#ffffff"
     bordercolor="#000000"
     borderopacity="0.25"
     inkscape:showpageshadow="2"
     inkscape:pageopacity="0.0"
     inkscape:pagecheckerboard="0"
     inkscape:deskcolor="#d1d1d1"
     inkscape:document-units="mm"
     showgrid="false"
     inkscape:zoom="0.35355339"
     inkscape:cx="753.77583"
     inkscape:cy="65.053824"
     inkscape:window-width="1920"
     inkscape:window-height="1009"
     inkscape:window-x="-8"
     inkscape:window-y="-8"
     inkscape:window-maximized="1"
     inkscape:current-layer="svg5" />
  <defs
     id="defs2" />
  <g
     id="g541"
     inkscape:label="v4-black"
     style="display:inline;fill:#000000;fill-opacity:1"
     inkscape:export-filename="nova_softworks.png"
     inkscape:export-xdpi="96"
     inkscape:export-ydpi="96"
     transform="translate(-36.501952,-50.641551)">
    <path
       d="M 36.501952,83.386472 V 51.283703 h 7.475359 L 61.679695,72.654975 H 58.148391 V 51.283703 h 8.897053 V 83.386472 H 59.570085 L 41.8677,62.0152 h 3.531305 v 21.371272 z"
       id="path515"
       inkscape:label="N"
       style="font-weight:800;font-size:45.8611px;font-family:Montserrat;-inkscape-font-specification:'Montserrat, Ultra-Bold';text-align:center;text-anchor:middle;fill:#000000;fill-opacity:1;stroke-width:0.264583" />
    <path
       d="m 89.125788,84.028528 q -3.852332,0 -7.108471,-1.23825 -3.256138,-1.23825 -5.686776,-3.485443 -2.384777,-2.293055 -3.714749,-5.319888 -1.329972,-3.026832 -1.329972,-6.649859 0,-3.623027 1.329972,-6.64986 1.329972,-3.026832 3.714749,-5.274026 2.430638,-2.293055 5.686776,-3.531305 3.256139,-1.238249 7.108471,-1.238249 3.898193,0 7.10847,1.238249 3.256156,1.23825 5.640942,3.531305 2.38478,2.247194 3.71475,5.274026 1.37583,3.026833 1.37583,6.64986 0,3.623027 -1.37583,6.69572 -1.32997,3.026833 -3.71475,5.274027 -2.384786,2.247193 -5.640942,3.485443 -3.210277,1.23825 -7.10847,1.23825 z m 0,-7.52122 q 1.834444,0 3.393721,-0.642056 1.605139,-0.642055 2.751666,-1.834444 1.192389,-1.238249 1.834439,-2.93511 0.68793,-1.696861 0.68793,-3.76061 0,-2.109611 -0.68793,-3.76061 -0.64205,-1.696861 -1.834439,-2.88925 -1.146527,-1.238249 -2.751666,-1.880305 -1.559277,-0.642055 -3.393721,-0.642055 -1.834444,0 -3.439583,0.642055 -1.559277,0.642056 -2.751666,1.880305 -1.146527,1.192389 -1.834444,2.88925 -0.642055,1.650999 -0.642055,3.76061 0,2.063749 0.642055,3.76061 0.687917,1.696861 1.834444,2.93511 1.192389,1.192389 2.751666,1.834444 1.605139,0.642056 3.439583,0.642056 z"
       id="path517"
       inkscape:label="O"
       style="font-weight:800;font-size:45.8611px;font-family:Montserrat;-inkscape-font-specification:'Montserrat, Ultra-Bold';text-align:center;text-anchor:middle;fill:#000000;fill-opacity:1;stroke-width:0.264583" />
    <path
       d="M 119.96566,83.386472 106.25319,51.283703 h 9.81428 l 11.55699,27.791826 h -5.77849 l 11.83216,-27.791826 h 8.98877 l -13.75833,32.102769 z"
       id="path519"
       inkscape:label="V"
       style="font-weight:800;font-size:45.8611px;font-family:Montserrat;-inkscape-font-specification:'Montserrat, Ultra-Bold';text-align:center;text-anchor:middle;fill:#000000;fill-opacity:1;stroke-width:0.264583" />
    <path
       id="path521"
       style="font-weight:800;font-size:45.8611px;font-family:Montserrat;-inkscape-font-specification:'Montserrat, Ultra-Bold';text-align:center;text-anchor:middle;fill:#000000;fill-opacity:1;stroke-width:0.264583"
       inkscape:label="A"
       d="m 150.34336,51.190345 -4.18321,9.761161 3.776,9.408728 h -7.80883 l -2.86959,6.695716 h 13.36559 l 2.50321,6.236828 h 9.44748 L 150.35679,51.190345 Z" />
    <path
       d="m 203.06247,84.028528 c -2.62937,0 -5.16701,-0.321028 -7.61294,-0.963083 -2.41535,-0.672629 -4.38738,-1.528703 -5.91608,-2.568222 l 4.0393,-6.69572 c 1.43698,0.917222 2.02965,1.681574 3.89467,2.293055 1.89559,0.580907 3.7759,0.871361 5.64092,0.871361 1.25353,0 2.26248,-0.107009 3.02683,-0.321028 0.76435,-0.244593 1.31469,-0.550333 1.651,-0.917222 0.36689,-0.397463 0.55033,-0.856074 0.55033,-1.375833 0,-0.733777 -0.33631,-1.314685 -1.00894,-1.742722 -0.67263,-0.428037 -1.544,-0.779638 -2.61409,-1.054805 -1.07009,-0.275167 -2.26247,-0.550333 -3.57716,-0.8255 -1.28411,-0.275167 -2.58351,-0.626768 -3.8982,-1.054805 -1.28411,-0.428037 -2.46121,-0.978371 -3.5313,-1.651 -1.07009,-0.703203 -1.94145,-1.605138 -2.61408,-2.705805 -0.67263,-1.13124 -1.00895,-2.552934 -1.00895,-4.265082 0,-1.926166 0.51976,-3.668888 1.55928,-5.228165 1.07009,-1.559277 2.65994,-2.812814 4.76955,-3.76061 2.10961,-0.947796 4.73898,-1.421694 7.88811,-1.421694 2.10961,0 4.17336,0.244592 6.19125,0.733777 2.04847,0.458611 4.92596,1.146528 6.5158,2.06375 l -3.85585,6.741581 c -1.52871,-0.825499 -3.04212,-1.436981 -4.54025,-1.834444 -1.49813,-0.428037 -2.9504,-0.642055 -4.35681,-0.642055 -1.25353,0 -2.26248,0.137583 -3.02683,0.41275 -0.76435,0.244593 -1.31469,0.580907 -1.651,1.008944 -0.33631,0.428037 -0.50447,0.917222 -0.50447,1.467555 0,0.703203 0.32103,1.268824 0.96308,1.696861 0.67263,0.397463 1.54399,0.733777 2.61408,1.008944 1.10067,0.244593 2.29306,0.504472 3.57717,0.779639 1.31469,0.275167 2.61408,0.626768 3.89819,1.054805 1.31469,0.397463 2.50708,0.947796 3.57717,1.651 1.07009,0.672629 1.92617,1.574564 2.56822,2.705804 0.67263,1.100667 1.00894,2.491787 1.00894,4.17336 0,1.865018 -0.53504,3.592453 -1.60513,5.182305 -1.03952,1.559277 -2.61409,2.812814 -4.7237,3.76061 -2.07903,0.947796 -4.7084,1.421694 -7.88811,1.421694 z"
       id="path523"
       inkscape:label="S"
       style="font-weight:800;font-size:45.8611px;font-family:Montserrat;-inkscape-font-specification:'Montserrat, Ultra-Bold';text-align:center;text-anchor:middle;fill:#000000;fill-opacity:1;stroke-width:0.264583"
       sodipodi:nodetypes="sccccsccsssccccscssccccscssccccccsccs" />
    <path
       d="m 237.11255,84.028528 q -3.85234,0 -7.10847,-1.23825 -3.25614,-1.23825 -5.68678,-3.485443 -2.38478,-2.293055 -3.71475,-5.319888 -1.32997,-3.026832 -1.32997,-6.649859 0,-3.623027 1.32997,-6.64986 1.32997,-3.026832 3.71475,-5.274026 2.43064,-2.293055 5.68678,-3.531305 3.25613,-1.238249 7.10847,-1.238249 3.89819,0 7.10847,1.238249 3.25613,1.23825 5.64091,3.531305 2.38478,2.247194 3.71475,5.274026 1.37583,3.026833 1.37583,6.64986 0,3.623027 -1.37583,6.69572 -1.32997,3.026833 -3.71475,5.274027 -2.38478,2.247193 -5.64091,3.485443 -3.21028,1.23825 -7.10847,1.23825 z m 0,-7.52122 q 1.83444,0 3.39372,-0.642056 1.60514,-0.642055 2.75166,-1.834444 1.19239,-1.238249 1.83445,-2.93511 0.68791,-1.696861 0.68791,-3.76061 0,-2.109611 -0.68791,-3.76061 -0.64206,-1.696861 -1.83445,-2.88925 -1.14652,-1.238249 -2.75166,-1.880305 -1.55928,-0.642055 -3.39372,-0.642055 -1.83445,0 -3.43959,0.642055 -1.55927,0.642056 -2.75166,1.880305 -1.14653,1.192389 -1.83445,2.88925 -0.64205,1.650999 -0.64205,3.76061 0,2.063749 0.64205,3.76061 0.68792,1.696861 1.83445,2.93511 1.19239,1.192389 2.75166,1.834444 1.60514,0.642056 3.43959,0.642056 z"
       id="path525"
       inkscape:label="O"
       style="font-weight:800;font-size:45.8611px;font-family:Montserrat;-inkscape-font-specification:'Montserrat, Ultra-Bold';text-align:center;text-anchor:middle;fill:#000000;fill-opacity:1;stroke-width:0.264583" />
    <path
       d="m 267.63137,65.36306 h 12.69647 l 2.11667,7.016749 h -14.81314 z m 0.64206,18.023412 h -9.0805 V 51.283703 h 25.17774 l -2.11667,7.016748 h -13.98057 z"
       id="path527"
       inkscape:label="F"
       style="font-weight:800;font-size:45.8611px;font-family:Montserrat;-inkscape-font-specification:'Montserrat, Ultra-Bold';text-align:center;text-anchor:middle;fill:#000000;fill-opacity:1;stroke-width:0.264583"
       sodipodi:nodetypes="cccccccccccc" />
    <path
       id="path529"
       style="font-weight:800;font-size:45.8611px;font-family:Montserrat;-inkscape-font-specification:'Montserrat, Ultra-Bold';text-align:center;text-anchor:middle;fill:#000000;fill-opacity:1;stroke-width:0.264583"
       inkscape:label="T"
       d="m 289.08949,51.283889 -2.33526,7.200077 h 7.88583 v 24.902356 h 9.08059 V 58.483966 h 7.56026 l -2.33474,-7.200077 z"
       sodipodi:nodetypes="ccccccccc" />
    <path
       d="M 324.08281,83.386472 313.67234,51.283703 h 9.35567 l 8.75947,27.791826 h -4.7237 l 9.21808,-27.791826 h 8.34672 l 8.71361,27.791826 h -4.54025 l 9.03464,-27.791826 h 8.66775 l -10.41047,32.102769 h -9.72255 l -7.4295,-23.618466 h 2.61408 l -7.75052,23.618466 z"
       id="path531"
       inkscape:label="W"
       style="font-weight:800;font-size:45.8611px;font-family:Montserrat;-inkscape-font-specification:'Montserrat, Ultra-Bold';text-align:center;text-anchor:middle;fill:#000000;fill-opacity:1;stroke-width:0.264583" />
    <path
       d="m 385.00752,84.028528 q -3.85233,0 -7.10847,-1.23825 -3.25614,-1.23825 -5.68677,-3.485443 -2.38478,-2.293055 -3.71475,-5.319888 -1.32997,-3.026832 -1.32997,-6.649859 0,-3.623027 1.32997,-6.64986 1.32997,-3.026832 3.71475,-5.274026 2.43063,-2.293055 5.68677,-3.531305 3.25614,-1.238249 7.10847,-1.238249 3.8982,0 7.10847,1.238249 3.25614,1.23825 5.64092,3.531305 2.38478,2.247194 3.71475,5.274026 1.37583,3.026833 1.37583,6.64986 0,3.623027 -1.37583,6.69572 -1.32997,3.026833 -3.71475,5.274027 -2.38478,2.247193 -5.64092,3.485443 -3.21027,1.23825 -7.10847,1.23825 z m 0,-7.52122 q 1.83445,0 3.39372,-0.642056 1.60514,-0.642055 2.75167,-1.834444 1.19239,-1.238249 1.83444,-2.93511 0.68792,-1.696861 0.68792,-3.76061 0,-2.109611 -0.68792,-3.76061 -0.64205,-1.696861 -1.83444,-2.88925 -1.14653,-1.238249 -2.75167,-1.880305 -1.55927,-0.642055 -3.39372,-0.642055 -1.83444,0 -3.43958,0.642055 -1.55928,0.642056 -2.75167,1.880305 -1.14652,1.192389 -1.83444,2.88925 -0.64205,1.650999 -0.64205,3.76061 0,2.063749 0.64205,3.76061 0.68792,1.696861 1.83444,2.93511 1.19239,1.192389 2.75167,1.834444 1.60514,0.642056 3.43958,0.642056 z"
       id="path533"
       inkscape:label="O"
       style="font-weight:800;font-size:45.8611px;font-family:Montserrat;-inkscape-font-specification:'Montserrat, Ultra-Bold';text-align:center;text-anchor:middle;fill:#000000;fill-opacity:1;stroke-width:0.264583" />
    <path
       id="path535"
       style="font-weight:800;font-size:45.8611px;font-family:Montserrat;-inkscape-font-specification:'Montserrat, Ultra-Bold';text-align:center;text-anchor:middle;fill:#000000;fill-opacity:1;stroke-width:0.264583"
       inkscape:label="R"
       d="m 407.08797,51.283889 v 32.102433 h 9.08059 v -8.530228 h 4.95628 l 5.82084,8.530228 h 9.07903 v -0.93741 l -6.28489,-9.158097 c 1.94225,-0.934555 3.45737,-2.216461 4.54391,-3.846277 1.14502,-1.747659 1.72443,-3.807667 1.74098,-6.178951 v -0.208773 c -0.0165,-2.401101 -0.59592,-4.476182 -1.74098,-6.22391 -1.16181,-1.803868 -2.813,-3.179601 -4.95319,-4.127396 -2.1096,-0.947795 -4.63187,-1.421619 -7.56698,-1.421619 z m 9.08059,7.154085 h 5.04465 c 1.89559,0 3.30216,0.412669 4.21938,1.238168 0.94779,0.825499 1.42162,1.987447 1.42162,3.485575 0,1.467553 -0.47383,2.614084 -1.42162,3.439583 -0.91722,0.8255 -2.32379,1.238168 -4.21938,1.238168 h -5.04465 z" />
    <path
       d="m 448.61335,76.278002 -0.50447,-10.181164 13.80419,-14.813135 h 9.99772 l -13.75833,14.904857 -5.04472,5.274027 z m -8.11742,7.10847 V 51.283703 h 8.98878 v 32.102769 z m 21.55472,0 -10.45633,-13.253857 5.91608,-6.328832 15.0883,19.582689 z"
       id="path537"
       inkscape:label="K"
       style="font-weight:800;font-size:45.8611px;font-family:Montserrat;-inkscape-font-specification:'Montserrat, Ultra-Bold';text-align:center;text-anchor:middle;fill:#000000;fill-opacity:1;stroke-width:0.264583" />
    <path
       id="path539"
       style="font-weight:800;font-size:45.8611px;font-family:Montserrat;-inkscape-font-specification:'Montserrat, Ultra-Bold';text-align:center;text-anchor:middle;fill:#000000;fill-opacity:1;stroke-width:0.264583"
       inkscape:label="S"
       d="m 486.28675,50.641551 c -3.14913,0 -5.7788,0.473824 -7.88841,1.421619 -0.6665,0.299441 -1.28056,0.629645 -1.8433,0.99012 l -3.53828,3.832841 c -0.63048,1.277552 -0.94723,2.666081 -0.94723,4.166154 0,1.712146 0.33661,3.133617 1.00924,4.264856 0.67263,1.100666 1.5437,2.002575 2.61379,2.705778 1.0701,0.672629 2.24746,1.223025 3.53157,1.651062 1.31468,0.428036 2.61384,0.77955 3.89796,1.054716 1.31468,0.275166 2.50695,0.550623 3.57704,0.825789 1.07008,0.275167 1.94168,0.62668 2.61431,1.054716 0.67262,0.428037 1.00872,1.008753 1.00872,1.74253 0,0.519759 -0.18347,0.978681 -0.55035,1.376143 -0.33631,0.366888 -0.88671,0.672664 -1.65106,0.917257 -0.76436,0.214018 -1.77316,0.32091 -3.02669,0.32091 -1.86502,0 -3.74541,-0.290357 -5.641,-0.871264 -1.86501,-0.611481 -2.45736,-1.376179 -3.89434,-2.2934 l -2.34146,2.882511 5.07928,6.592879 c 2.17913,0.500814 4.4293,0.751892 6.75153,0.751892 3.17969,0 5.80937,-0.473823 7.8884,-1.421618 2.10961,-0.947795 3.68423,-2.201735 4.72375,-3.761011 1.07009,-1.58985 1.60507,-3.317096 1.60507,-5.182113 0,-1.681571 -0.33661,-3.072723 -1.00924,-4.173388 -0.64206,-1.131239 -1.49771,-2.03315 -2.56781,-2.705778 -1.07009,-0.703204 -2.26288,-1.2536 -3.57756,-1.651062 -1.28411,-0.428036 -2.58326,-0.77955 -3.89795,-1.054716 -1.2841,-0.275167 -2.47638,-0.535205 -3.57704,-0.779798 -1.07009,-0.275166 -1.94168,-0.611261 -2.61431,-1.008724 -0.64206,-0.428036 -0.96325,-0.993851 -0.96325,-1.697054 0,-0.550332 0.16856,-1.039574 0.50488,-1.46761 0.33631,-0.428037 0.88671,-0.764132 1.65106,-1.008724 0.76435,-0.275167 1.77316,-0.412895 3.02669,-0.412895 1.40641,0 2.85871,0.214302 4.35684,0.642338 1.49812,0.397463 3.01158,1.008498 4.54029,1.833997 l 3.85557,-6.741191 c -1.58985,-0.917221 -4.46741,-1.605346 -6.51587,-2.063957 -2.01789,-0.489184 -4.08124,-0.733805 -6.19084,-0.733805 z"
       sodipodi:nodetypes="ssccsccccsssccsccccsccsccccccsscsccccs" />
  </g>
</svg>
